<?xml version="1.0" encoding="utf-8"?>
<!-- Generator: Adobe Illustrator 16.0.0, SVG Export Plug-In . SVG Version: 6.00 Build 0)  -->
<!DOCTYPE svg PUBLIC "-//W3C//DTD SVG 1.1//EN" "http://www.w3.org/Graphics/SVG/1.1/DTD/svg11.dtd">
<svg version="1.1" id="svg-rule" xmlns="http://www.w3.org/2000/svg" viewBox="0 0 350 350" xml:space="preserve">
	<path fill="none" stroke="#9400D3" stroke-width="6" d="M188.764,12.83l148.77,148.77c7.811,7.81,7.811,20.474,0,28.284
		l-148.77,148.77c-7.811,7.811-20.474,7.811-28.284,0l-148.77-148.77c-7.811-7.811-7.811-20.474,0-28.284l148.77-148.77
		C168.29,5.019,180.953,5.019,188.764,12.83z"/>
	<path fill="none" stroke="#9400D3" stroke-width="6" d="M187.689,29.51l132.694,132.694c7.81,7.811,7.81,20.473,0,28.284
		L187.689,323.184c-7.811,7.811-20.474,7.811-28.285,0L26.71,190.488c-7.811-7.811-7.81-20.473,0-28.284L159.405,29.51
		C167.215,21.7,179.879,21.7,187.689,29.51z"/>
	<circle fill="none" stroke="#9400D3" stroke-width="5" cx="229.134" cy="188.563" r="26.399"/>
	<circle fill="none" stroke="#9400D3" stroke-width="5" cx="115.997" cy="188.049" r="26.399"/>
	<polyline fill="none" stroke="#9400D3" stroke-width="5" stroke-linejoin="round" points="136.91,143.137 204.793,143.479
		228.791,188.049 182.851,188.049 134.853,155.479 	"/>
	<path fill="#9400D3" d="M139.518,116.426c-3.687,0-6.474-0.082-9.331,4.282c-0.822,1.455-1.198,3.231-0.895,5
		c0.364,2.011,1.555,3.986,2.958,5.155c1.858,1.548,3.622,1.429,3.336,2.821c-0.365,1.786-1.481,4.268-2.688,8.298
		c-1.224,4.091-2.678,9.098-4.105,14.03c-1.427,4.932-2.828,9.791-3.936,13.578c-0.555,1.893-1.039,3.519-1.411,4.736
		c-0.362,1.186-0.682,2.107-0.652,2.042c-1.155,2.032-1.312,3.356-3.25,5.087c-2.172,1.901-3.941,3.306-4.555,3.734
		c-1.559,1.133-2.284,3.523-1.46,4.705c1.038,1.609,3.18,1.855,4.747,1.375c1.487-0.473,3.841-1.283,6.571-3.545l0.021-0.031
		l0.032-0.021c3.798-3.258,5.204-7.212,5.347-7.441l0.2-0.305l0.137-0.337c0.329-0.81,0.526-1.524,0.916-2.8
		c0.39-1.275,0.883-2.922,1.442-4.831c1.118-3.817,2.512-8.684,3.937-13.609c1.425-4.925,2.875-9.907,4.083-13.946
		c1.209-4.04,1.973-7.357,2.255-8.062c0.687-1.717,1.038-3.572,0.568-5.431c-0.47-1.859-1.873-3.36-3.133-3.708
		c-2.875-0.805-2.112-2.873-0.641-2.876l12.329-0.025l0.03-7.875C152.37,116.426,144.367,116.426,139.518,116.426z"/>
	<line fill="#FFFFFF" x1="183.73" y1="186.654" x2="207.003" y2="129.684"/>
	<line fill="none" stroke="#9400D3" stroke-width="5" x1="183.73" y1="186.654" x2="207.003" y2="129.684"/>
	<line fill="#FFFFFF" x1="173.306" y1="168.472" x2="192.215" y2="208.473"/>

		<line fill="none" stroke="#9400D3" stroke-width="5" stroke-linecap="round" x1="173.306" y1="168.472" x2="192.215" y2="208.473"/>
	<ellipse fill="none" stroke="#9400D3" stroke-width="5" cx="183.108" cy="188.135" rx="10.371" ry="10.714"/>
	<line fill="#FFFFFF" x1="168.258" y1="169.699" x2="180.68" y2="169.812"/>
	<line fill="none" stroke="#9400D3" stroke-width="5" x1="168.258" y1="169.699" x2="180.68" y2="169.812"/>
	<line fill="#FFFFFF" x1="185.883" y1="206.79" x2="198.305" y2="206.904"/>
	<line fill="none" stroke="#9400D3" stroke-width="5" x1="185.883" y1="206.79" x2="198.305" y2="206.904"/>
	<path fill="#9400D3" d="M218.397,124.593h-29.212c-1.092,0-2.5,1.93-1.092,3.212c1.523,1.449,15.213,4.424,15.213,4.424
		s3.758,1.03,5.758,0.788C211.064,132.774,217.973,132.168,218.397,124.593z"/>
	<path fill="none" stroke="#9400D3" stroke-width="5" d="M218.397,124.593h-29.212c-1.092,0-2.5,1.93-1.092,3.212
		c1.523,1.449,15.213,4.424,15.213,4.424s3.758,1.03,5.758,0.788C211.064,132.774,217.973,132.168,218.397,124.593z"/>
</svg>
