<?xml version="1.0" encoding="utf-8"?>
<!-- Generator: Adobe Illustrator 16.0.0, SVG Export Plug-In . SVG Version: 6.00 Build 0)  -->
<!DOCTYPE svg PUBLIC "-//W3C//DTD SVG 1.1//EN" "http://www.w3.org/Graphics/SVG/1.1/DTD/svg11.dtd">
<svg version="1.1" id="Layer_1" xmlns="http://www.w3.org/2000/svg" xmlns:xlink="http://www.w3.org/1999/xlink" x="0px" y="0px"
	 width="350px" height="350px" viewBox="0 0 350 350" enable-background="new 0 0 350 350" xml:space="preserve">
<g>
	<path fill="#ED1C26" d="M188.764,12.83l-2.121,2.121l148.771,148.77c3.325,3.328,4.977,7.66,4.979,12.021
		c-0.003,4.36-1.654,8.693-4.979,12.021L186.643,336.533c-3.327,3.325-7.66,4.976-12.021,4.979c-4.36-0.003-8.693-1.653-12.02-4.979
		L13.831,187.763h0c-3.326-3.328-4.977-7.661-4.98-12.021c0.003-4.36,1.654-8.692,4.979-12.02l0.029-0.029L162.601,14.951
		c3.328-3.325,7.66-4.976,12.021-4.979c4.361,0.003,8.694,1.654,12.021,4.979L188.764,12.83l2.121-2.121
		c-4.483-4.486-10.387-6.741-16.263-6.737c-5.876-0.003-11.78,2.251-16.263,6.737L9.589,159.479v0
		c-4.486,4.483-6.741,10.387-6.737,16.263c-0.003,5.876,2.251,11.78,6.737,16.264l148.77,148.771
		c4.483,4.485,10.387,6.74,16.263,6.736c5.876,0.004,11.78-2.251,16.263-6.736l148.771-148.771
		c4.486-4.482,6.741-10.387,6.737-16.263c0.004-5.876-2.251-11.781-6.737-16.264L190.885,10.709L188.764,12.83z"/>
	<path fill="#ED1C26" d="M187.689,29.51l-2.121,2.121l132.693,132.694c3.325,3.328,4.976,7.66,4.979,12.021
		c-0.003,4.36-1.653,8.693-4.979,12.021L185.568,321.062c-3.328,3.325-7.661,4.977-12.022,4.979
		c-4.361-0.003-8.694-1.654-12.021-4.979L28.831,188.367c-3.326-3.329-4.976-7.664-4.979-12.028
		c0.003-4.356,1.655-8.687,4.979-12.014h0L161.526,31.631c3.327-3.324,7.66-4.975,12.021-4.979
		c4.361,0.003,8.694,1.654,12.021,4.979L187.689,29.51l2.121-2.122c-4.483-4.485-10.388-6.739-16.264-6.736
		c-5.876-0.003-11.78,2.251-16.263,6.736L24.589,160.083h0c-4.482,4.481-6.74,10.381-6.736,16.256
		c-0.003,5.878,2.249,11.784,6.736,16.271l132.694,132.695c4.483,4.486,10.388,6.741,16.264,6.737
		c5.876,0.004,11.781-2.251,16.264-6.737l132.693-132.695c4.485-4.483,6.74-10.388,6.736-16.264
		c0.004-5.876-2.251-11.779-6.736-16.263L189.811,27.389L187.689,29.51z"/>
	<path fill="#ED1C26" d="M229.134,162.164v2.5c6.607,0.001,12.566,2.671,16.899,7c4.329,4.333,6.999,10.291,7,16.898
		c-0.001,6.607-2.671,12.566-7,16.899c-4.333,4.329-10.292,6.999-16.899,7c-6.607-0.001-12.566-2.671-16.899-7
		c-4.329-4.333-6.999-10.292-7-16.899c0.001-6.607,2.671-12.565,7-16.898c4.333-4.329,10.292-6.999,16.899-7V162.164v-2.5
		c-15.961,0.001-28.897,12.938-28.899,28.898c0.002,15.962,12.938,28.897,28.899,28.899c15.962-0.002,28.897-12.938,28.899-28.899
		c-0.002-15.961-12.938-28.897-28.899-28.898V162.164z"/>
	<path fill="#ED1C26" d="M115.997,161.65v2.5c6.607,0.001,12.566,2.671,16.899,7c4.329,4.333,6.999,10.292,7,16.899
		c-0.001,6.607-2.671,12.566-7,16.899c-4.333,4.329-10.292,6.999-16.899,7c-6.607-0.001-12.566-2.671-16.899-7
		c-4.329-4.333-6.998-10.292-7-16.899c0.001-6.607,2.671-12.566,7-16.899c4.333-4.329,10.292-6.999,16.899-7V161.65v-2.5
		c-15.962,0.001-28.897,12.938-28.899,28.899c0.001,15.962,12.937,28.897,28.899,28.899c15.961-0.002,28.897-12.938,28.899-28.899
		c-0.001-15.961-12.938-28.897-28.899-28.899V161.65z"/>
	<path fill="#ED1C26" d="M136.897,145.637l66.398,0.334l21.31,39.577H183.62l-47.363-32.139l-2.808,4.138l47.999,32.569
		c0.413,0.281,0.903,0.432,1.403,0.432h45.939c0.877,0,1.696-0.465,2.146-1.218c0.449-0.753,0.471-1.695,0.055-2.468l-23.998-44.569
		c-0.435-0.808-1.271-1.311-2.188-1.315l-67.883-0.342L136.897,145.637z"/>
	<path fill="#ED1C26" d="M139.518,116.426v-3c-0.132,0-0.264,0-0.397,0c-0.883,0.001-1.792,0.002-2.758,0.09
		c-0.724,0.067-1.481,0.186-2.259,0.408c-1.165,0.328-2.365,0.908-3.451,1.772c-1.091,0.863-2.068,1.981-2.976,3.369l-0.054,0.082
		l-0.048,0.086c-0.875,1.553-1.385,3.35-1.387,5.245c0,0.573,0.047,1.154,0.147,1.736l0.002,0.014l0.002,0.015
		c0.256,1.4,0.771,2.699,1.449,3.867c0.682,1.167,1.524,2.207,2.541,3.058c1.217,1.015,2.411,1.513,2.892,1.766
		c0.118,0.059,0.188,0.1,0.192,0.103l0.462-0.738l-0.564,0.66l0.102,0.078l0.462-0.738l-0.564,0.66l1.263-1.477l-1.723,0.88
		c0.159,0.311,0.357,0.509,0.46,0.597l1.263-1.477l-1.723,0.88l1.874-0.957h-2.109c-0.006,0.26,0.073,0.651,0.235,0.957l1.874-0.957
		h-2.109h1.606l-1.576-0.323c-0.014,0.068-0.03,0.177-0.03,0.323h1.606l-1.576-0.323l0,0.002c-0.112,0.576-0.442,1.573-0.917,2.909
		c-0.473,1.341-1.078,3.033-1.705,5.128v0.001c-1.23,4.11-2.685,9.122-4.113,14.056c-1.427,4.933-2.828,9.792-3.934,13.569l0-0.002
		c-0.553,1.886-1.035,3.504-1.401,4.704v0.001c-0.165,0.54-0.322,1.027-0.439,1.383c-0.058,0.178-0.106,0.323-0.142,0.431
		l-0.047,0.145l-0.028,0.088l-0.03,0.107l-0.035,0.146l-0.031,0.172c-0.011,0.088-0.031,0.189-0.034,0.448
		c0,0.062,0.001,0.143,0.012,0.269c0.009,0.095,0.022,0.216,0.061,0.388c0.029,0.13,0.072,0.289,0.156,0.494
		c0.126,0.298,0.354,0.74,0.865,1.167c0.252,0.209,0.573,0.396,0.914,0.514c0.34,0.12,0.69,0.17,0.992,0.169
		c0.579-0.002,1.007-0.157,1.297-0.295c0.542-0.273,0.728-0.494,0.879-0.641c0.239-0.259,0.3-0.375,0.363-0.467
		c0.081-0.132,0.109-0.189,0.134-0.236l0.045-0.094l-5.326-2.752c-0.687,1.217-1.054,2.147-1.372,2.731
		c-0.326,0.593-0.555,0.948-1.268,1.601l1.998,2.237l-1.976-2.258c-1.058,0.926-2.018,1.731-2.778,2.35
		c-0.38,0.309-0.71,0.57-0.973,0.774c-0.26,0.202-0.463,0.352-0.542,0.406l-0.025,0.018l-0.024,0.018
		c-1.009,0.739-1.727,1.667-2.231,2.655c-0.499,0.994-0.801,2.059-0.808,3.23c0.002,0.923,0.202,1.974,0.882,2.961l2.461-1.715
		l-2.521,1.627c0.701,1.094,1.708,1.877,2.729,2.332c1.028,0.46,2.069,0.633,3.056,0.635c0.819-0.001,1.606-0.121,2.36-0.35
		l0.016-0.006l0.016-0.005c0.783-0.249,1.92-0.626,3.225-1.264c1.309-0.638,2.795-1.54,4.35-2.829l0.334-0.277l0.263-0.392
		l-2.49-1.673l1.682,2.484l0.032-0.021l0.142-0.096l0.13-0.111c2.216-1.902,3.705-3.974,4.672-5.604
		c0.483-0.815,0.837-1.525,1.08-2.047c0.121-0.26,0.215-0.475,0.276-0.615l0.059-0.135l-0.095-0.043l0.095,0.044l0-0.001
		l-0.095-0.043l0.095,0.044l-1.692-0.784l1.665,0.841l0.027-0.057l-1.692-0.784l1.665,0.841l-2.426-1.226l2.306,1.438
		c0.077-0.124,0.1-0.175,0.12-0.212l-2.426-1.226l2.306,1.438l-2.546-1.587l2.509,1.645l0.2-0.305l0.159-0.243l0.247-0.606
		l0.001-0.002c0.203-0.498,0.364-0.969,0.516-1.449c0.152-0.482,0.299-0.98,0.489-1.603c0.395-1.291,0.89-2.947,1.452-4.866
		c1.123-3.831,2.517-8.698,3.94-13.619c1.424-4.921,2.873-9.898,4.075-13.92v0c0.619-2.069,1.121-3.942,1.501-5.373
		c0.189-0.714,0.349-1.318,0.471-1.765c0.062-0.223,0.114-0.406,0.152-0.533l0.044-0.139l-0.022-0.007l0.021,0.008l0.001-0.001
		l-0.022-0.007l0.021,0.008l0.008-0.019l-0.008,0.021c0.568-1.422,0.996-3.029,0.998-4.791c0-0.81-0.094-1.649-0.306-2.489l0-0.001
		c-0.366-1.432-1.052-2.657-1.916-3.655c-0.435-0.499-0.919-0.942-1.463-1.32c-0.546-0.376-1.153-0.691-1.864-0.89l0.011,0.003
		c-0.18-0.05-0.282-0.098-0.313-0.114l-0.01-0.006l-0.106,0.18l0.123-0.169l-0.017-0.011l-0.106,0.18l0.123-0.169l-0.689,0.947
		l1.001-0.574c-0.131-0.228-0.269-0.341-0.312-0.373l-0.689,0.947l1.001-0.574l-1.592,0.912h1.827
		c0.003-0.349-0.104-0.688-0.235-0.912l-1.592,0.912h1.827h-1.885l1.273,1.408c0.331-0.29,0.615-0.812,0.612-1.408h-1.885
		l1.273,1.408l-1.075-1.189l0.003,1.618c0.342,0,0.741-0.128,1.072-0.429l-1.075-1.189l0.003,1.618l15.311-0.031l0.054-13.869
		h-3.012v0.046v-0.046v0.046v-0.046c-0.255,0-8.076,0-12.852,0V116.426v3c4.85,0,12.851,0,12.852,0v-3l-3-0.012l-0.019,4.893
		l-9.346,0.019c-1.088,0.001-2.142,0.397-2.942,1.122c-0.799,0.714-1.365,1.816-1.362,3.042c-0.001,0.589,0.133,1.185,0.376,1.714
		c0.364,0.8,0.949,1.43,1.597,1.889c0.653,0.462,1.377,0.775,2.169,0.998l0.007,0.002l0.004,0.001l0.113-0.408l-0.152,0.396
		l0.039,0.013l0.113-0.408l-0.152,0.396l0.007-0.019l-0.008,0.018l0.001,0l0.007-0.019l-0.008,0.018
		c0.039,0.011,0.309,0.195,0.535,0.495c0.234,0.298,0.436,0.694,0.528,1.07l0-0.001c0.084,0.333,0.123,0.666,0.124,1.02
		c0.002,0.761-0.196,1.633-0.568,2.562l-0.008,0.019l0.007-0.018c-0.096,0.242-0.15,0.419-0.214,0.628
		c-0.211,0.703-0.47,1.717-0.825,3.045c-0.352,1.32-0.788,2.918-1.304,4.642v0c-1.213,4.056-2.665,9.043-4.091,13.972
		c-1.426,4.93-2.82,9.796-3.934,13.6c-0.556,1.899-1.046,3.536-1.432,4.796c-0.2,0.653-0.347,1.15-0.472,1.547
		c-0.126,0.398-0.228,0.689-0.354,1.001l0.001-0.002l-0.027,0.067l-0.041,0.062l-0.019,0.028l-0.018,0.029
		c-0.108,0.178-0.136,0.243-0.168,0.306c-0.053,0.109-0.076,0.165-0.105,0.229c-0.097,0.222-0.222,0.515-0.43,0.937
		c-0.613,1.249-1.895,3.435-4.051,5.279l1.953,2.277l-1.682-2.484l-0.032,0.021l-0.483,0.327l-0.346,0.516l2.49,1.673l-1.914-2.311
		c-1.175,0.973-2.23,1.606-3.153,2.058c-0.926,0.45-1.71,0.715-2.415,0.939l0.91,2.858l-0.878-2.869
		c-0.165,0.052-0.393,0.089-0.604,0.088c-0.258,0.002-0.482-0.054-0.592-0.105c-0.116-0.059-0.119-0.071-0.152-0.115l-0.029-0.045
		l-0.03-0.043l-0.961,0.67l1.137-0.306c-0.021-0.08-0.071-0.214-0.176-0.364l-0.961,0.67l1.137-0.306l-0.605,0.162l0.623-0.076
		l-0.018-0.086l-0.605,0.162l0.623-0.076l-0.149,0.019h0.151l-0.002-0.019l-0.149,0.019h0.151c-0.007-0.023,0.034-0.283,0.159-0.517
		c0.118-0.24,0.303-0.444,0.408-0.516l-1.764-2.427l1.714,2.462c0.228-0.159,0.477-0.346,0.788-0.587
		c0.924-0.716,2.355-1.889,4.028-3.352l0.011-0.01l0.011-0.011c1.225-1.078,2.044-2.25,2.57-3.26
		c0.534-1.019,0.823-1.768,1.291-2.582l-2.608-1.482l-2.717-1.271l2.686,1.256l-2.58-1.461c-0.073,0.131-0.088,0.17-0.105,0.205
		l2.686,1.256l-2.58-1.461l2.606,1.476l-2.363-1.841c-0.158,0.208-0.201,0.294-0.244,0.365l2.606,1.476l-2.363-1.841l2.366,1.844
		l-1.908-2.314c-0.266,0.224-0.372,0.365-0.458,0.471l2.366,1.844l-1.908-2.314l1.908,2.314l-1.297-2.705
		c-0.293,0.143-0.474,0.279-0.611,0.39l1.908,2.314l-1.297-2.705l1.297,2.705v-3c-0.579,0.002-1.007,0.157-1.297,0.295l1.297,2.705
		v-3v3l1.179-2.758c-0.395-0.17-0.821-0.243-1.179-0.241v3l1.179-2.758l-1.179,2.758l2.065-2.176
		c-0.232-0.222-0.541-0.436-0.886-0.583l-1.179,2.758l2.065-2.176l-2.065,2.176l2.778-1.133c-0.112-0.269-0.301-0.647-0.712-1.043
		l-2.065,2.176l2.778-1.133l-2.777,1.133l2.981-0.328c-0.022-0.164-0.042-0.393-0.204-0.805l-2.777,1.133l2.981-0.328l-2.981,0.328
		h2.999c0-0.071-0.001-0.166-0.018-0.328l-2.981,0.328h2.999h-2.996l2.962,0.447c0.011-0.088,0.031-0.189,0.034-0.447h-2.996
		l2.962,0.447l-2.942-0.444l2.892,0.701c0.011-0.048,0.025-0.099,0.05-0.257l-2.942-0.444l2.892,0.701l-2.75-0.666l2.715,0.795
		l0.034-0.129l-2.75-0.666l2.715,0.795l-1.655-0.485l1.644,0.523l0.012-0.038l-1.655-0.485l1.644,0.523
		c0.003-0.012,0.034-0.103,0.072-0.22c0.118-0.358,0.34-1.031,0.581-1.821v0.001c0.377-1.236,0.864-2.869,1.421-4.769l0-0.002
		c1.11-3.795,2.512-8.656,3.938-13.586c1.427-4.93,2.878-9.931,4.097-14.004v0.001c0.58-1.935,1.137-3.499,1.615-4.853
		c0.476-1.359,0.886-2.496,1.139-3.706l0.002-0.013l-0.003,0.015c0.055-0.269,0.091-0.563,0.092-0.882
		c0.003-0.508-0.105-1.083-0.333-1.587c-0.196-0.443-0.467-0.816-0.734-1.097c-0.474-0.495-0.901-0.745-1.24-0.94
		c-0.513-0.283-0.889-0.443-1.227-0.625c-0.335-0.179-0.625-0.357-0.913-0.597c-0.387-0.318-0.841-0.851-1.196-1.466
		c-0.359-0.614-0.622-1.308-0.73-1.919l0.005,0.028c-0.041-0.24-0.061-0.481-0.061-0.724c-0.002-0.798,0.225-1.613,0.611-2.295
		l-2.612-1.475l2.51,1.643c0.569-0.869,1.078-1.438,1.516-1.815c0.666-0.558,1.15-0.762,1.884-0.927
		c0.727-0.156,1.727-0.187,3.023-0.183c0.13,0,0.262,0,0.397,0V116.426z"/>
	<polyline fill="#ED1C26" points="184.193,186.844 207.466,129.873 206.54,129.495 183.268,186.465 	"/>
	<polyline fill="#ED1C26" points="184.193,186.844 206.893,131.277 205.967,130.899 183.268,186.465 	"/>
	<polyline fill="#ED1C26" points="186.045,187.6 208.057,133.715 203.428,131.825 181.416,185.709 	"/>
	<polyline fill="#ED1C26" points="172.854,168.686 191.763,208.687 192.667,208.259 173.758,168.258 	"/>
	<polyline fill="#ED1C26" points="172.854,168.686 191.763,208.687 192.667,208.259 173.758,168.258 	"/>
	<path fill="#ED1C26" d="M171.046,169.541l18.909,40c0.59,1.248,2.08,1.782,3.328,1.191c1.248-0.59,1.782-2.08,1.191-3.328
		l-18.908-40c-0.59-1.249-2.081-1.782-3.329-1.192C170.989,166.802,170.456,168.292,171.046,169.541"/>
	<path fill="#ED1C26" d="M183.107,177.421v2.5c2.157,0.002,4.096,0.894,5.537,2.377c1.437,1.485,2.333,3.537,2.334,5.837
		c-0.001,2.3-0.897,4.353-2.334,5.838c-1.441,1.483-3.38,2.375-5.537,2.377c-2.156-0.002-4.095-0.894-5.536-2.377
		c-1.437-1.486-2.334-3.538-2.334-5.838c0-2.299,0.898-4.352,2.334-5.837c1.441-1.483,3.38-2.375,5.536-2.377V177.421v-2.5
		c-3.57-0.002-6.817,1.505-9.129,3.899c-2.318,2.392-3.742,5.696-3.742,9.314c0,3.618,1.424,6.924,3.742,9.315
		c2.312,2.395,5.559,3.901,9.129,3.899c3.571,0.002,6.818-1.505,9.13-3.899c2.317-2.393,3.742-5.697,3.741-9.315
		c0.001-3.617-1.424-6.923-3.741-9.314c-2.312-2.395-5.559-3.901-9.13-3.899V177.421z"/>
	<polyline fill="#ED1C26" points="168.253,170.199 180.675,170.312 180.685,169.312 168.262,169.199 	"/>
	<polyline fill="#ED1C26" points="168.253,170.199 180.675,170.312 180.685,169.312 168.262,169.199 	"/>
	<polyline fill="#ED1C26" points="168.235,172.199 180.657,172.312 180.702,167.312 168.28,167.199 	"/>
	<polyline fill="#ED1C26" points="185.878,207.29 198.3,207.404 198.31,206.404 185.888,206.29 	"/>
	<polyline fill="#ED1C26" points="185.878,207.29 198.3,207.404 198.31,206.404 185.888,206.29 	"/>
	<polyline fill="#ED1C26" points="185.859,209.29 198.281,209.404 198.328,204.404 185.906,204.29 	"/>
	<path fill="#ED1C26" d="M218.396,124.593v-0.5h-29.211c-0.591,0.009-1.104,0.33-1.501,0.765c-0.394,0.44-0.68,1.03-0.683,1.688
		c-0.005,0.563,0.236,1.164,0.754,1.629l0.337-0.37l-0.345,0.362c0.292,0.269,0.696,0.469,1.241,0.704
		c1.887,0.796,5.413,1.745,8.501,2.511c3.083,0.764,5.707,1.334,5.71,1.335l0.106-0.489l-0.132,0.482
		c0.021,0.002,3.026,0.837,5.208,0.842c0.258,0,0.506-0.012,0.741-0.04c0.995-0.124,3.301-0.334,5.44-1.522
		c1.07-0.595,2.105-1.442,2.895-2.646c0.79-1.203,1.327-2.755,1.437-4.724l0.029-0.528h-0.528V124.593l-0.499-0.028
		c-0.103,1.819-0.588,3.183-1.274,4.231c-1.029,1.569-2.54,2.455-4.006,2.975c-1.465,0.519-2.856,0.658-3.613,0.75
		c-0.185,0.022-0.395,0.033-0.621,0.033c-0.97,0.001-2.221-0.199-3.213-0.402c-0.497-0.101-0.932-0.203-1.241-0.279
		c-0.31-0.076-0.489-0.126-0.49-0.126l-0.013-0.003l-0.013-0.003c-0.003,0-0.853-0.185-2.157-0.486
		c-1.956-0.451-4.929-1.163-7.545-1.895c-1.308-0.365-2.527-0.736-3.479-1.079c-0.475-0.171-0.884-0.335-1.196-0.483
		c-0.312-0.145-0.532-0.288-0.598-0.354l-0.004-0.004l-0.004-0.003c-0.327-0.304-0.424-0.589-0.428-0.89
		c-0.003-0.349,0.169-0.736,0.427-1.02c0.253-0.289,0.583-0.441,0.757-0.433h29.211V124.593l-0.499-0.028L218.396,124.593z"/>
	<path fill="#ED1C26" d="M218.396,124.593v-2.5h-29.211c-0.71,0.003-1.292,0.207-1.771,0.463c-0.719,0.394-1.258,0.924-1.684,1.577
		c-0.417,0.652-0.725,1.459-0.729,2.413c-0.002,0.541,0.11,1.123,0.354,1.667c0.242,0.545,0.611,1.041,1.054,1.441l1.684-1.848
		l-1.723,1.812c0.355,0.332,0.645,0.5,0.938,0.667c0.543,0.297,1.113,0.528,1.774,0.772c1.148,0.419,2.546,0.84,4.031,1.252
		c4.441,1.23,9.638,2.358,9.661,2.364l0.531-2.443l-0.661,2.411c0.036,0.01,0.833,0.228,1.925,0.451
		c1.101,0.22,2.46,0.458,3.812,0.463c0.32,0,0.645-0.014,0.981-0.055h0.002c0.467-0.058,1.397-0.152,2.486-0.396
		c1.637-0.371,3.742-1.075,5.594-2.712c0.92-0.816,1.756-1.871,2.363-3.161c0.61-1.289,0.989-2.797,1.083-4.498l0.147-2.64h-2.644
		V124.593l-2.496-0.14c-0.09,1.521-0.47,2.507-0.95,3.247c-0.364,0.553-0.803,0.98-1.312,1.339
		c-0.761,0.535-1.694,0.894-2.584,1.116c-0.896,0.225-1.694,0.31-2.291,0.381h0.002c-0.083,0.01-0.218,0.019-0.382,0.019
		c-0.714,0.006-1.893-0.17-2.813-0.362c-0.464-0.095-0.874-0.191-1.163-0.262c-0.145-0.036-0.259-0.065-0.334-0.084l-0.084-0.022
		l-0.021-0.005l-0.065-0.018l-0.064-0.014c-0.001,0-0.206-0.045-0.578-0.128c-1.302-0.29-4.604-1.042-7.703-1.868
		c-1.547-0.412-3.048-0.844-4.186-1.23c-0.566-0.191-1.044-0.374-1.357-0.514c-0.155-0.069-0.27-0.128-0.316-0.156l-0.021-0.013
		l-0.218,0.344l0.244-0.325l-0.026-0.019l-0.218,0.344l0.244-0.325l-0.77,1.025l0.883-0.928l-0.113-0.097l-0.77,1.025l0.883-0.928
		l-0.019-0.018l-0.021-0.019l-0.433,0.475l0.578-0.258c-0.052-0.119-0.126-0.201-0.146-0.217l-0.433,0.475l0.578-0.258l-0.833,0.372
		h0.913c0.001-0.109-0.026-0.253-0.08-0.372l-0.833,0.372h0.913h-0.631l0.586,0.25c0.017-0.04,0.044-0.12,0.045-0.25h-0.631
		l0.586,0.25l-0.238-0.102l0.162,0.202l0.076-0.1l-0.238-0.102l0.162,0.202l-0.461-0.575l0.279,0.677
		c0.104-0.043,0.152-0.08,0.182-0.103l-0.461-0.575l0.279,0.677l-0.514-1.245v1.34c0.245-0.001,0.41-0.053,0.514-0.095l-0.514-1.245
		v1.34h29.211V124.593l-2.496-0.14L218.396,124.593z"/>
</g>
</svg>
